<svg width="24" height="25" viewBox="0 0 24 25" fill="none" xmlns="http://www.w3.org/2000/svg">
<g id="element-4">
<path id="Vector" d="M22 11.7003V4.90029C22 3.40029 21.36 2.80029 19.77 2.80029L15.73 2.80029C14.14 2.80029 13.5 3.40029 13.5 4.90029L13.5 11.7003C13.5 13.2003 14.14 13.8003 15.73 13.8003L19.77 13.8003C21.36 13.8003 22 13.2003 22 11.7003Z" stroke="white" stroke-width="1.5" stroke-linecap="round" stroke-linejoin="round"/>
<path id="Vector_2" d="M22 20.7003V18.9003C22 17.4003 21.36 16.8003 19.77 16.8003H15.73C14.14 16.8003 13.5 17.4003 13.5 18.9003V20.7003C13.5 22.2003 14.14 22.8003 15.73 22.8003H19.77C21.36 22.8003 22 22.2003 22 20.7003Z" stroke="white" stroke-width="1.5" stroke-linecap="round" stroke-linejoin="round"/>
<path id="Vector_3" d="M10.5 13.9003L10.5 20.7003C10.5 22.2003 9.86 22.8003 8.27 22.8003H4.23C2.64 22.8003 2 22.2003 2 20.7003L2 13.9003C2 12.4003 2.64 11.8003 4.23 11.8003L8.27 11.8003C9.86 11.8003 10.5 12.4003 10.5 13.9003Z" stroke="white" stroke-width="1.5" stroke-linecap="round" stroke-linejoin="round"/>
<path id="Vector_4" d="M10.5 4.90029V6.70029C10.5 8.20029 9.86 8.80029 8.27 8.80029H4.23C2.64 8.80029 2 8.20029 2 6.70029V4.90029C2 3.40029 2.64 2.80029 4.23 2.80029L8.27 2.80029C9.86 2.80029 10.5 3.40029 10.5 4.90029Z" stroke="white" stroke-width="1.5" stroke-linecap="round" stroke-linejoin="round"/>
</g>
</svg>
