<svg width="32" height="33" viewBox="0 0 32 33" fill="none" xmlns="http://www.w3.org/2000/svg">
<g id="fluent:people-community-24-regular">
<path id="Vector" d="M10.0003 5.46631C9.46989 5.46631 8.96118 5.67702 8.58611 6.05209C8.21104 6.42717 8.00033 6.93588 8.00033 7.46631C8.00033 7.99674 8.21104 8.50545 8.58611 8.88052C8.96118 9.25559 9.46989 9.46631 10.0003 9.46631C10.5308 9.46631 11.0395 9.25559 11.4145 8.88052C11.7896 8.50545 12.0003 7.99674 12.0003 7.46631C12.0003 6.93588 11.7896 6.42717 11.4145 6.05209C11.0395 5.67702 10.5308 5.46631 10.0003 5.46631ZM6.00033 7.46631C6.00033 6.40544 6.42175 5.38803 7.1719 4.63788C7.92204 3.88774 8.93946 3.46631 10.0003 3.46631C11.0612 3.46631 12.0786 3.88774 12.8288 4.63788C13.5789 5.38803 14.0003 6.40544 14.0003 7.46631C14.0003 8.52717 13.5789 9.54459 12.8288 10.2947C12.0786 11.0449 11.0612 11.4663 10.0003 11.4663C8.93946 11.4663 7.92204 11.0449 7.1719 10.2947C6.42175 9.54459 6.00033 8.52717 6.00033 7.46631ZM5.02433 12.7996C3.72033 12.7996 2.66699 13.8543 2.66699 15.157V15.637C2.66699 15.913 2.66699 17.5143 3.60033 19.0703C4.33099 20.2836 5.56966 21.373 7.56699 21.861C7.84055 21.1338 8.33593 20.511 8.98299 20.081C6.84566 19.853 5.83499 18.9036 5.31633 18.041C4.67099 16.9663 4.66699 15.8223 4.66699 15.633V15.157C4.66699 14.9596 4.82699 14.7996 5.02433 14.7996H10.707C10.7951 14.0946 11.0241 13.4144 11.3803 12.7996H5.02433ZM20.6203 12.7996C20.9683 13.4023 21.203 14.0783 21.2923 14.7996H26.9763C27.1737 14.7996 27.3337 14.9596 27.3337 15.157V15.633C27.3337 15.8223 27.3297 16.9663 26.6843 18.0396C26.1657 18.9036 25.155 19.853 23.0177 20.081C23.6577 20.5076 24.159 21.129 24.4337 21.861C26.431 21.373 27.6697 20.2836 28.399 19.0703C29.3337 17.5143 29.3337 15.9143 29.3337 15.6356V15.1556C29.3337 13.8556 28.279 12.7996 26.9763 12.7996H20.6203ZM20.0003 7.46631C20.0003 6.93588 20.211 6.42717 20.5861 6.05209C20.9612 5.67702 21.4699 5.46631 22.0003 5.46631C22.5308 5.46631 23.0395 5.67702 23.4145 6.05209C23.7896 6.42717 24.0003 6.93588 24.0003 7.46631C24.0003 7.99674 23.7896 8.50545 23.4145 8.88052C23.0395 9.25559 22.5308 9.46631 22.0003 9.46631C21.4699 9.46631 20.9612 9.25559 20.5861 8.88052C20.211 8.50545 20.0003 7.99674 20.0003 7.46631ZM22.0003 3.46631C20.9395 3.46631 19.922 3.88774 19.1719 4.63788C18.4218 5.38803 18.0003 6.40544 18.0003 7.46631C18.0003 8.52717 18.4218 9.54459 19.1719 10.2947C19.922 11.0449 20.9395 11.4663 22.0003 11.4663C23.0612 11.4663 24.0786 11.0449 24.8288 10.2947C25.5789 9.54459 26.0003 8.52717 26.0003 7.46631C26.0003 6.40544 25.5789 5.38803 24.8288 4.63788C24.0786 3.88774 23.0612 3.46631 22.0003 3.46631ZM16.0003 13.4663C15.7377 13.4663 15.4776 13.518 15.235 13.6185C14.9923 13.7191 14.7718 13.8664 14.5861 14.0521C14.4004 14.2378 14.2531 14.4583 14.1526 14.7009C14.0521 14.9436 14.0003 15.2037 14.0003 15.4663C14.0003 15.729 14.0521 15.989 14.1526 16.2317C14.2531 16.4743 14.4004 16.6948 14.5861 16.8805C14.7718 17.0662 14.9923 17.2136 15.235 17.3141C15.4776 17.4146 15.7377 17.4663 16.0003 17.4663C16.5308 17.4663 17.0395 17.2556 17.4145 16.8805C17.7896 16.5054 18.0003 15.9967 18.0003 15.4663C18.0003 14.9359 17.7896 14.4272 17.4145 14.0521C17.0395 13.677 16.5308 13.4663 16.0003 13.4663ZM12.0003 15.4663C12.0003 14.4054 12.4218 13.388 13.1719 12.6379C13.922 11.8877 14.9395 11.4663 16.0003 11.4663C17.0612 11.4663 18.0786 11.8877 18.8288 12.6379C19.5789 13.388 20.0003 14.4054 20.0003 15.4663C20.0003 16.5272 19.5789 17.5446 18.8288 18.2947C18.0786 19.0449 17.0612 19.4663 16.0003 19.4663C14.9395 19.4663 13.922 19.0449 13.1719 18.2947C12.4218 17.5446 12.0003 16.5272 12.0003 15.4663ZM8.66699 23.157C8.66699 21.853 9.72166 20.7996 11.0243 20.7996H20.9763C22.279 20.7996 23.3337 21.8543 23.3337 23.157V23.637C23.3337 23.913 23.3337 25.5143 22.4003 27.0703C21.4097 28.7156 19.4843 30.133 16.0003 30.133C12.5163 30.133 10.5897 28.7156 9.60032 27.0703C8.66699 25.5143 8.66699 23.9143 8.66699 23.6356V23.157ZM11.0243 22.7996C10.9774 22.7996 10.9309 22.8089 10.8876 22.8268C10.8442 22.8448 10.8048 22.8711 10.7717 22.9043C10.7385 22.9375 10.7121 22.9769 10.6942 23.0202C10.6762 23.0636 10.667 23.11 10.667 23.157V23.633C10.667 23.8223 10.671 24.9663 11.3163 26.0396C11.911 27.0303 13.1523 28.133 16.0003 28.133C18.8483 28.133 20.0897 27.0303 20.6843 26.0396C21.3297 24.9663 21.3337 23.8223 21.3337 23.633V23.157C21.3337 23.0622 21.296 22.9713 21.229 22.9043C21.162 22.8373 21.0711 22.7996 20.9763 22.7996H11.0243Z" fill="white"/>
</g>
</svg>
