<svg width="97" height="86" viewBox="0 0 97 86" fill="none" xmlns="http://www.w3.org/2000/svg">
<g id="Group 93">
<path id="Vector" d="M39.9648 34.295C39.9648 38.6515 43.7854 42.1829 48.4998 42.1829C53.2142 42.1829 57.0348 38.6515 57.0348 34.295C57.0348 29.9362 53.2142 26.4048 48.4998 26.4048C43.7854 26.4048 39.9648 29.9362 39.9648 34.295Z" fill="white"/>
<g id="Clip path group">
<mask id="mask0_878_28618" style="mask-type:luminance" maskUnits="userSpaceOnUse" x="8" y="0" width="81" height="40">
<g id="3cd4563a88">
<path id="Vector_2" d="M8.88379 0H88.1175V39.1646H8.88379V0Z" fill="white"/>
</g>
</mask>
<g mask="url(#mask0_878_28618)">
<g id="Group">
<path id="Vector_3" d="M48.5006 4.67975C27.5928 4.67975 10.4956 19.7452 9.2155 38.7729C9.1635 38.0121 9.13379 37.2443 9.13379 36.472C9.13379 16.3741 26.7583 0.0849609 48.5006 0.0849609C70.2403 0.0849609 87.8649 16.3741 87.8649 36.472C87.8649 37.2443 87.8376 38.0121 87.7856 38.7729C86.5055 19.7452 69.4084 4.67975 48.5006 4.67975Z" fill="white"/>
</g>
</g>
</g>
<path id="Vector_4" d="M29.4424 24.4471L48.5006 15.3882L67.5588 24.4471L57.7833 25.6342V33.2792H39.2178V25.6342L36.9003 25.3546V30.1328C36.9003 30.4949 36.5808 30.7905 36.1896 30.7905C35.7959 30.7905 35.479 30.4949 35.479 30.1328V25.1805L29.4424 24.4471Z" fill="white"/>
<g id="Clip path group_2">
<mask id="mask1_878_28618" style="mask-type:luminance" maskUnits="userSpaceOnUse" x="42" y="11" width="55" height="75">
<g id="73b8ee2416">
<path id="Vector_5" d="M42.4785 11.5913H96.0405V85.8001H42.4785V11.5913Z" fill="white"/>
</g>
</mask>
<g mask="url(#mask1_878_28618)">
<g id="Group_2">
<path id="Vector_6" d="M42.7825 75.6983C42.7949 74.6235 42.8395 73.8696 42.8717 73.5648C43.8423 63.8114 47.7248 54.4706 54.0783 46.5529C58.5996 40.9177 71.7697 30.6006 76.3999 18.4158C75.5036 27.9354 69.5165 37.0975 62.3458 46.5529C55.0464 56.1802 63.2125 73.6817 63.2125 73.6817C79.9877 68.1083 91.9842 53.2721 91.9842 35.8462C91.9842 26.9706 88.8693 18.771 83.6003 12.1206C91.3256 19.9329 96.04 30.3371 96.04 41.7564C96.04 62.3837 80.6637 79.6904 59.9292 84.4227C56.2671 85.2569 52.4392 85.6992 48.4998 85.6992C46.8581 85.6992 45.2388 85.6235 43.6417 85.4746C42.8915 81.5398 42.7603 77.9258 42.7825 75.6983Z" fill="white"/>
</g>
</g>
</g>
<g id="Clip path group_3">
<mask id="mask2_878_28618" style="mask-type:luminance" maskUnits="userSpaceOnUse" x="0" y="11" width="47" height="75">
<g id="d2fcbdda55">
<path id="Vector_7" d="M0.959961 11.5913H46.9155V85.5113H0.959961V11.5913Z" fill="white"/>
</g>
</mask>
<g mask="url(#mask2_878_28618)">
<g id="Group_3">
<path id="Vector_8" d="M39.3462 75.6662C39.3586 74.5227 39.4081 73.6725 39.4527 73.26C40.2054 65.6792 42.6245 58.3252 46.5317 51.6244C45.4348 49.8781 44.2315 48.1846 42.9216 46.5529C38.4004 40.9177 25.2302 30.6006 20.6 18.4181C21.4964 27.9354 27.4835 37.0975 34.6516 46.5529C41.9535 56.1802 33.7875 73.6817 33.7875 73.6817C17.0122 68.1083 5.01574 53.2721 5.01574 35.8485C5.01574 26.9706 8.13061 18.771 13.3997 12.1206C5.67437 19.9329 0.959961 30.3371 0.959961 41.7564C0.959961 62.3837 16.3363 79.6904 37.0707 84.4227C38.0612 84.6473 39.0615 84.8444 40.0767 85.0094C39.4057 81.0173 39.3289 77.4904 39.3462 75.6662Z" fill="#98B7F4"/>
</g>
</g>
</g>
</g>
</svg>
