<svg width="32" height="33" viewBox="0 0 32 33" fill="none" xmlns="http://www.w3.org/2000/svg">
<g id="mdi:report-pie-outline">
<g id="Vector">
<mask id="path-1-inside-1_1401_224" fill="white">
<path d="M17.3337 15.4663H26.6003C26.2714 13.0219 25.2537 10.9508 23.547 9.25298C21.8492 7.5552 19.7781 6.53742 17.3337 6.19964M14.667 27.3996V6.19964C12.0003 6.53742 9.7781 7.71075 8.00033 9.71964C6.22255 11.7285 5.33366 14.0885 5.33366 16.7996C5.33366 19.5108 6.22255 21.8708 8.00033 23.8796C9.7781 25.8974 12.0003 27.0708 14.667 27.3996ZM17.3337 27.3996C19.7781 27.0885 21.8581 26.0796 23.5737 24.373C25.2803 22.6574 26.2892 20.5774 26.6003 18.133H17.3337M16.0003 30.133C14.1603 30.133 12.427 29.7819 10.8003 29.0796C9.18255 28.3863 7.77366 27.4396 6.57366 26.2396C5.37366 25.0396 4.42255 23.6263 3.72033 21.9996C3.0181 20.3819 2.66699 18.6485 2.66699 16.7996C2.66699 14.9508 3.0181 13.2174 3.72033 11.5996C4.42255 9.98186 5.37366 8.57297 6.57366 7.37297C7.77366 6.17297 9.18255 5.22186 10.8003 4.51964C12.427 3.81742 14.1603 3.46631 16.0003 3.46631C17.8403 3.46631 19.5692 3.81742 21.187 4.51964C22.7959 5.22186 24.2048 6.17742 25.4137 7.38631C26.6314 8.5952 27.587 10.0041 28.2803 11.613C28.9825 13.2308 29.3337 14.9596 29.3337 16.7996C29.3337 18.6219 28.9825 20.3463 28.2803 21.973C27.587 23.5908 26.6403 25.0041 25.4403 26.213C24.2403 27.4308 22.827 28.3863 21.2003 29.0796C19.5825 29.7819 17.8492 30.133 16.0003 30.133Z"/>
</mask>
<path d="M17.3337 15.4663H26.6003C26.2714 13.0219 25.2537 10.9508 23.547 9.25298C21.8492 7.5552 19.7781 6.53742 17.3337 6.19964M14.667 27.3996V6.19964C12.0003 6.53742 9.7781 7.71075 8.00033 9.71964C6.22255 11.7285 5.33366 14.0885 5.33366 16.7996C5.33366 19.5108 6.22255 21.8708 8.00033 23.8796C9.7781 25.8974 12.0003 27.0708 14.667 27.3996ZM17.3337 27.3996C19.7781 27.0885 21.8581 26.0796 23.5737 24.373C25.2803 22.6574 26.2892 20.5774 26.6003 18.133H17.3337M16.0003 30.133C14.1603 30.133 12.427 29.7819 10.8003 29.0796C9.18255 28.3863 7.77366 27.4396 6.57366 26.2396C5.37366 25.0396 4.42255 23.6263 3.72033 21.9996C3.0181 20.3819 2.66699 18.6485 2.66699 16.7996C2.66699 14.9508 3.0181 13.2174 3.72033 11.5996C4.42255 9.98186 5.37366 8.57297 6.57366 7.37297C7.77366 6.17297 9.18255 5.22186 10.8003 4.51964C12.427 3.81742 14.1603 3.46631 16.0003 3.46631C17.8403 3.46631 19.5692 3.81742 21.187 4.51964C22.7959 5.22186 24.2048 6.17742 25.4137 7.38631C26.6314 8.5952 27.587 10.0041 28.2803 11.613C28.9825 13.2308 29.3337 14.9596 29.3337 16.7996C29.3337 18.6219 28.9825 20.3463 28.2803 21.973C27.587 23.5908 26.6403 25.0041 25.4403 26.213C24.2403 27.4308 22.827 28.3863 21.2003 29.0796C19.5825 29.7819 17.8492 30.133 16.0003 30.133Z" fill="white"/>
<path d="M26.6003 15.4663V15.6663H26.829L26.7985 15.4396L26.6003 15.4663ZM23.547 9.25298L23.4056 9.3944L23.4059 9.39477L23.547 9.25298ZM14.667 27.3996L14.6425 27.5981L14.867 27.6258V27.3996H14.667ZM14.667 6.19964H14.867V5.97271L14.6419 6.00123L14.667 6.19964ZM8.00033 23.8796L8.15039 23.7474L8.1501 23.7471L8.00033 23.8796ZM23.5737 24.373L23.7147 24.5148L23.7154 24.514L23.5737 24.373ZM26.6003 18.133L26.7987 18.1582L26.8274 17.933H26.6003V18.133ZM10.8003 29.0796L10.8796 28.896L10.8791 28.8958L10.8003 29.0796ZM3.72033 21.9996L3.90395 21.9204L3.90379 21.92L3.72033 21.9996ZM10.8003 4.51964L10.7211 4.33602L10.7207 4.33618L10.8003 4.51964ZM21.187 4.51964L21.267 4.33634L21.2666 4.33618L21.187 4.51964ZM25.4137 7.38631L25.2722 7.52773L25.2728 7.52825L25.4137 7.38631ZM28.2803 11.613L28.0967 11.6921L28.0969 11.6926L28.2803 11.613ZM28.2803 21.973L28.0967 21.8937L28.0965 21.8942L28.2803 21.973ZM25.4403 26.213L25.2984 26.0721L25.2979 26.0726L25.4403 26.213ZM21.2003 29.0796L21.1219 28.8957L21.1207 28.8962L21.2003 29.0796ZM17.3337 15.6663H26.6003V15.2663H17.3337V15.6663ZM26.7985 15.4396C26.4639 12.9527 25.4267 10.8408 23.688 9.11118L23.4059 9.39477C25.0806 11.0607 26.0789 13.091 26.4021 15.493L26.7985 15.4396ZM23.6884 9.11155C21.9589 7.38205 19.8474 6.34509 17.361 6.00152L17.3063 6.39776C19.7088 6.72975 21.7395 7.72835 23.4056 9.3944L23.6884 9.11155ZM14.867 27.3996V6.19964H14.467V27.3996H14.867ZM14.6419 6.00123C11.9271 6.34509 9.66058 7.54177 7.85055 9.5871L8.1501 9.85219C9.89563 7.87973 12.0735 6.72975 14.6921 6.39806L14.6419 6.00123ZM7.85055 9.5871C6.04003 11.633 5.13366 14.0403 5.13366 16.7996H5.53366C5.53366 14.1368 6.40506 11.8241 8.1501 9.85219L7.85055 9.5871ZM5.13366 16.7996C5.13366 19.559 6.04003 21.9663 7.85055 24.0122L8.1501 23.7471C6.40506 21.7752 5.53366 19.4625 5.53366 16.7996H5.13366ZM7.85026 24.0119C9.66035 26.0663 11.9272 27.2633 14.6425 27.5981L14.6915 27.2011C12.0734 26.8783 9.89585 25.7285 8.15039 23.7474L7.85026 24.0119ZM17.3589 27.598C19.8463 27.2815 21.9672 26.2532 23.7147 24.5148L23.4326 24.2312C21.749 25.9061 19.7099 26.8956 17.3084 27.2012L17.3589 27.598ZM23.7154 24.514C25.4539 22.7666 26.4822 20.6456 26.7987 18.1582L26.4019 18.1077C26.0963 20.5092 25.1068 22.5483 23.4319 24.2319L23.7154 24.514ZM26.6003 17.933H17.3337V18.333H26.6003V17.933ZM16.0003 29.933C14.1865 29.933 12.4803 29.587 10.8796 28.896L10.7211 29.2633C12.3737 29.9767 14.1341 30.333 16.0003 30.333V29.933ZM10.8791 28.8958C9.28383 28.2121 7.89642 27.2796 6.71508 26.0982L6.43224 26.3811C7.6509 27.5997 9.08126 28.5605 10.7215 29.2635L10.8791 28.8958ZM6.71508 26.0982C5.53373 24.9169 4.5966 23.5249 3.90395 21.9204L3.5367 22.0789C4.24849 23.7277 5.21359 25.1624 6.43224 26.3811L6.71508 26.0982ZM3.90379 21.92C3.213 20.3286 2.86699 18.6225 2.86699 16.7996H2.46699C2.46699 18.6746 2.82321 20.4352 3.53686 22.0793L3.90379 21.92ZM2.86699 16.7996C2.86699 14.9768 3.213 13.2707 3.90379 11.6793L3.53686 11.52C2.82321 13.1641 2.46699 14.9247 2.46699 16.7996H2.86699ZM3.90379 11.6793C4.5964 10.0836 5.53355 8.69593 6.71508 7.5144L6.43224 7.23155C5.21377 8.45002 4.24869 9.8801 3.53686 11.52L3.90379 11.6793ZM6.71508 7.5144C7.89661 6.33286 9.28432 5.39572 10.88 4.7031L10.7207 4.33618C9.08078 5.04801 7.6507 6.01309 6.43224 7.23155L6.71508 7.5144ZM10.8796 4.70326C12.4803 4.01226 14.1865 3.66631 16.0003 3.66631V3.26631C14.1341 3.26631 12.3737 3.62258 10.7211 4.33602L10.8796 4.70326ZM16.0003 3.66631C17.8141 3.66631 19.5158 4.01226 21.1074 4.7031L21.2666 4.33618C19.6226 3.62258 17.8665 3.26631 16.0003 3.26631V3.66631ZM21.107 4.70294C22.6936 5.39544 24.0815 6.33699 25.2722 7.52773L25.5551 7.24489C24.328 6.01785 22.8982 5.04829 21.267 4.33634L21.107 4.70294ZM25.2728 7.52825C26.472 8.71875 27.4132 10.1062 28.0967 11.6921L28.464 11.5338C27.7608 9.90197 26.7909 8.47165 25.5546 7.24437L25.2728 7.52825ZM28.0969 11.6926C28.7877 13.2842 29.1337 14.9858 29.1337 16.7996H29.5337C29.5337 14.9335 29.1774 13.1773 28.4638 11.5333L28.0969 11.6926ZM29.1337 16.7996C29.1337 18.5954 28.7878 20.2928 28.0967 21.8937L28.4639 22.0522C29.1773 20.3998 29.5337 18.6483 29.5337 16.7996H29.1337ZM28.0965 21.8942C27.4127 23.4896 26.48 24.8817 25.2984 26.0721L25.5823 26.3539C26.8006 25.1265 27.7612 23.6919 28.4642 22.0518L28.0965 21.8942ZM25.2979 26.0726C24.1168 27.2712 22.7254 28.2122 21.1219 28.8957L21.2787 29.2636C22.9286 28.5604 24.3639 27.5903 25.5828 26.3534L25.2979 26.0726ZM21.1207 28.8962C19.5293 29.587 17.8232 29.933 16.0003 29.933V30.333C17.8753 30.333 19.6358 29.9768 21.28 29.2631L21.1207 28.8962Z" fill="#1246AC" mask="url(#path-1-inside-1_1401_224)"/>
</g>
</g>
</svg>
