<svg width="32" height="33" viewBox="0 0 32 33" fill="none" xmlns="http://www.w3.org/2000/svg">
<g id="ph:student-light">
<path id="Vector" d="M28.2375 8.0884L16.2375 4.0884C16.0833 4.03694 15.9167 4.03694 15.7625 4.0884L3.7625 8.0884C3.61327 8.13822 3.48349 8.23371 3.39151 8.36135C3.29954 8.48899 3.25003 8.64233 3.25 8.79965V18.7997C3.25 18.9986 3.32902 19.1893 3.46967 19.33C3.61032 19.4706 3.80109 19.5497 4 19.5497C4.19891 19.5497 4.38968 19.4706 4.53033 19.33C4.67098 19.1893 4.75 18.9986 4.75 18.7997V9.83965L9.585 11.4522C8.97528 12.3532 8.56212 13.3726 8.37239 14.4439C8.18266 15.5152 8.22062 16.6144 8.4838 17.6701C8.74698 18.7257 9.22948 19.7142 9.8999 20.571C10.5703 21.4279 11.4136 22.134 12.375 22.6434C9.96875 23.4597 7.875 25.0922 6.375 27.3934C6.28878 27.5585 6.2671 27.7499 6.3142 27.9301C6.36129 28.1104 6.47379 28.2666 6.62977 28.3685C6.78576 28.4703 6.97407 28.5105 7.15804 28.4811C7.34201 28.4518 7.50847 28.355 7.625 28.2097C9.55875 25.2484 12.61 23.5497 16 23.5497C19.39 23.5497 22.4412 25.2484 24.375 28.2097C24.4908 28.3581 24.6582 28.4575 24.844 28.4882C25.0297 28.5189 25.2203 28.4787 25.3777 28.3754C25.5351 28.2721 25.6479 28.1134 25.6938 27.9308C25.7396 27.7482 25.715 27.555 25.625 27.3897C24.125 25.0922 22.0338 23.4597 19.625 22.6397C20.5858 22.1297 21.4286 21.4232 22.0984 20.5661C22.7682 19.7089 23.25 18.7204 23.5126 17.6648C23.7752 16.6092 23.8126 15.5101 23.6224 14.4391C23.4322 13.3681 23.0187 12.3491 22.4088 11.4484L28.2375 9.5109C28.3866 9.461 28.5163 9.36548 28.6082 9.23785C28.7001 9.11021 28.7495 8.95692 28.7495 8.79965C28.7495 8.64238 28.7001 8.48909 28.6082 8.36146C28.5163 8.23382 28.3866 8.1383 28.2375 8.0884ZM22.25 15.7997C22.2504 16.7956 22.0129 17.7772 21.5571 18.6627C21.1013 19.5482 20.4406 20.3119 19.6298 20.8903C18.8191 21.4687 17.8819 21.845 16.8962 21.9878C15.9106 22.1306 14.9051 22.0358 13.9636 21.7113C13.022 21.3869 12.1716 20.842 11.4833 20.1223C10.7949 19.4026 10.2885 18.5288 10.0063 17.5737C9.72401 16.6186 9.67408 15.6099 9.86063 14.6317C10.0472 13.6534 10.4648 12.7338 11.0787 11.9497L15.7625 13.5109C15.9167 13.5624 16.0833 13.5624 16.2375 13.5109L20.9212 11.9497C21.7835 13.0476 22.2515 14.4036 22.25 15.7997ZM16 12.0097L6.375 8.79965L16 5.58965L25.625 8.79965L16 12.0097Z" fill="white" stroke="white" stroke-width="0.5"/>
</g>
</svg>
