<svg width="13" height="8" viewBox="0 0 13 8" fill="none" xmlns="http://www.w3.org/2000/svg">
<path id="Vector" fill-rule="evenodd" clip-rule="evenodd" d="M6.04415 1.60777L0.499022 0L1.87922 5.6061L3.60099 3.9532L6.37833 6.84627C6.47262 6.94448 6.60288 7 6.73902 7C6.87517 7 7.00543 6.94448 7.09972 6.84627L9.13902 4.72199L12.1383 7.84627C12.3296 8.04547 12.6461 8.05193 12.8453 7.86069C13.0445 7.66946 13.051 7.35294 12.8597 7.15373L9.49972 3.65373C9.40543 3.55552 9.27517 3.5 9.13902 3.5C9.00288 3.5 8.87262 3.55552 8.77833 3.65373L6.73902 5.77801L4.32238 3.26067L6.04415 1.60777Z" fill="#1C1C1C"/>
</svg>
